<mxfile host="app.diagrams.net" modified="2024-02-08T01:11:26.026Z" agent="Mozilla/5.0 (Windows NT 10.0; Win64; x64) AppleWebKit/537.36 (KHTML, like Gecko) Chrome/121.0.0.0 Safari/537.36" version="22.1.16" etag="jYAPYk2CYkzO9oB2bgvC" type="github">
  <diagram name="Page-1" id="36CPC7LNMyUdRtxBqK22">
    <mxGraphModel>
      <root>
        <mxCell id="0" />
        <mxCell id="1" parent="0" />
      </root>
    </mxGraphModel>
  </diagram>
</mxfile>
